<svg width="127" height="74" viewBox="0 0 127 74" fill="none" xmlns="http://www.w3.org/2000/svg">
<path d="M2.76104 73C2.76104 73 -3.21909 30.4991 6.86068 8.30707C7.7191 6.41714 8.93545 4.5727 10.8806 3.84814C21.8134 -0.224236 45.2411 18.8549 30.1664 35.4404C15.5535 46.1595 15.1504 31.2654 28.2898 30.5706C35.8788 30.1696 55.6952 66.7406 33.9196 71.2614C12.144 75.7823 42.46 62.3483 44.4324 55.9572C49.6888 38.9144 44.4324 12.1351 47.8122 5.52675C51.1921 -1.08161 77.4675 1.00589 81.224 2.74445C84.9805 4.48301 85.7304 69.5198 79.3474 64.9989C72.9644 60.4781 88.357 1.00589 93.2368 1.7007C98.1165 2.39551 87.2304 47.2614 102.996 36.1321C118.762 25.0029 118.762 0.656954 113.133 4.13407C107.503 7.61119 102.996 76.4741 115.386 65.3448C127.775 54.2156 125.899 32.652 125.899 32.652" stroke="url(#paint0_linear)" stroke-miterlimit="10" stroke-linecap="round"/>
<defs>
<linearGradient id="paint0_linear" x1="11.4528" y1="46.75" x2="43.9774" y2="43.3347" gradientUnits="userSpaceOnUse">
<stop offset="0.385417" stop-color="#31AFF2"/>
<stop offset="1" stop-color="#5553F0"/>
</linearGradient>
</defs>
</svg>
