<svg width="55" height="84" viewBox="0 0 55 84" fill="none" xmlns="http://www.w3.org/2000/svg">
<path d="M54.7075 28.5363C54.7075 28.5363 36.7249 18.7683 31.2165 6.94459C25.891 -4.4863 24.6382 2.81568 20.5677 10.1198C16.4972 17.424 14.534 22.5459 6.39083 25.4047C1.28062 27.1985 2.19331 44.7922 11.5204 61.8142C11.5204 61.8142 20.2556 57.4321 13.6773 54.2568C7.09903 51.0816 -1.67056 56.797 1.77571 63.4662C5.22198 70.1353 12.4245 63.1475 13.6773 66.0064C14.9301 68.8652 21.3512 83.6088 27.9295 82.9737C36.9725 82.1008 54.3954 36.7919 52.2019 32.0301C50.0084 27.2662 31.5307 22.8208 29.9637 16.7889C28.3966 10.7549 27.1438 13.2951 27.1438 21.5529C27.1438 29.8107 27.2278 78.2469 27.2278 78.2469" stroke="url(#paint0_linear)" stroke-miterlimit="10"/>
<defs>
<linearGradient id="paint0_linear" x1="1.00001" y1="12.9574" x2="-15.1938" y2="62.5827" gradientUnits="userSpaceOnUse">
<stop offset="0.199468" stop-color="#31AFF2"/>
<stop offset="1" stop-color="#5553F0"/>
</linearGradient>
</defs>
</svg>
